# xmcd
#
# Track frame offsets:
#	150
#	12934
#	32544
#	45328
#	60501
#	83353
#	106937
#	126376
#	147865
#	158772
#
# Disc length: 2382 seconds
#
# Revision: 1
# Processed by: cddbd v1.5.1PL0 Copyright (c) Steve Scherf et al.
# Submitted via: EasyCDDAExtractor 8.0.2.1
#
DISCID=6e094c0a
DTITLE=MC Lyte - Lyte As A Rock
DYEAR=1986
DGENRE=Hip-Hop
TTITLE0=Lyte vs. Vanna Whyte
TTITLE1=Lyte As A Rock
TTITLE2=I Am Woman
TTITLE3=MC Lyte Likes Swingin'
TTITLE4=10 Percent Dis
TTITLE5=Paper Thin
TTITLE6=Lyte Thee M C
TTITLE7=I Cram To Understand U
TTITLE8=Kickin' 4 Brooklyn
TTITLE9=Don't Cry Big Girls
EXTD=
EXTT0=
EXTT1=
EXTT2=
EXTT3=
EXTT4=
EXTT5=
EXTT6=
EXTT7=
EXTT8=
EXTT9=
PLAYORDER=
